<svg width="45" height="45" viewBox="0 0 43 43" fill="none" xmlns="http://www.w3.org/2000/svg">
<g id="Lasso-select">
<path id="Vector" d="M12.5416 39.4163C11.429 38.5819 10.526 37.4999 9.90401 36.256C9.28205 35.0121 8.95825 33.6404 8.95825 32.2497M8.95825 32.2497C9.90861 32.2497 10.82 31.8721 11.4921 31.2001C12.1641 30.5281 12.5416 29.6167 12.5416 28.6663C12.5416 27.716 12.1641 26.8045 11.4921 26.1325C10.82 25.4605 9.90861 25.083 8.95825 25.083C8.00789 25.083 7.09646 25.4605 6.42445 26.1325C5.75245 26.8045 5.37492 27.716 5.37492 28.6663C5.37492 29.6167 5.75245 30.5281 6.42445 31.2001C7.09646 31.8721 8.00789 32.2497 8.95825 32.2497ZM12.5416 30.3326C14.2616 31.103 16.0533 31.6584 17.8987 31.963M5.98409 25.083C4.44431 23.009 3.60357 20.4993 3.58325 17.9163C3.58325 9.99717 11.6099 3.58301 21.4999 3.58301C31.3899 3.58301 39.4166 9.99717 39.4166 17.9163C39.3897 19.1327 39.1906 20.3391 38.8253 21.4997M25.6745 39.4164H25.5133C25.3916 39.3762 25.2852 39.2997 25.2083 39.1972C25.1314 39.0947 25.0878 38.9711 25.0833 38.8431V20.9264C25.0832 20.7679 25.1449 20.6156 25.2553 20.5019C25.3657 20.3881 25.5161 20.3219 25.6745 20.3172C25.8178 20.3172 25.9433 20.371 26.0508 20.4606L39.2016 31.2106C39.2994 31.287 39.3707 31.3923 39.4054 31.5115C39.44 31.6307 39.4363 31.7578 39.3947 31.8748C39.353 31.9917 39.2756 32.0926 39.1734 32.1632C39.0713 32.2337 38.9495 32.2702 38.8253 32.2676H30.7808L26.1762 39.1656C26.1178 39.2434 26.042 39.3066 25.9549 39.3502C25.8679 39.3937 25.7719 39.4164 25.6745 39.4164Z" stroke="#FFAE00" stroke-width="2" stroke-linecap="round" stroke-linejoin="round"/>
</g>
</svg>
