<svg width="43" height="43" viewBox="0 0 43 43" fill="none" xmlns="http://www.w3.org/2000/svg">
<path id="Vector" d="M21.5011 42.9933C20.6498 42.9933 19.8482 42.6628 19.2454 42.0624L0.92981 23.7393C-0.309489 22.4941 -0.309489 20.467 0.927124 19.2244L7.63652 12.5131C8.05007 12.098 8.6865 12 9.20746 12.2727C9.72574 12.544 10.0104 13.1217 9.90835 13.6993C9.83987 14.0835 9.80899 14.3911 9.80899 14.6705C9.80899 17.6097 12.199 20.0505 15.1381 20.0505C18.0799 20.0505 20.2269 17.6097 20.2269 14.6705C20.2269 11.7273 18.0799 9.33615 15.1381 9.33615C14.8629 9.33615 14.5567 9.36839 14.1727 9.43555C13.59 9.54302 13.018 9.2542 12.7468 8.73568C12.4756 8.21446 12.5736 7.57773 12.9871 7.16398L19.2427 0.904061C20.4538 -0.302249 22.5497 -0.299563 23.7555 0.901375L28.3354 5.48616C29.2913 2.51337 32.0815 0.354639 35.3643 0.354639C39.4353 0.354639 42.7477 3.66998 42.7477 7.7443C42.7477 11.0301 40.5927 13.8202 37.6187 14.7753L42.0683 19.2244C43.3103 20.471 43.3103 22.4968 42.0697 23.742L23.7568 42.065C23.1512 42.6695 22.351 43 21.4997 43L21.5011 42.9933ZM7.3559 16.5915L2.82837 21.1198C2.63368 21.316 2.63368 21.6424 2.83105 21.8412L21.1399 40.1602C21.3964 40.4141 21.5991 40.4181 21.8609 40.1575L40.1698 21.8385C40.3658 21.6397 40.3658 21.3187 40.1684 21.1185L33.7115 14.6625C33.3073 14.2581 33.2026 13.6415 33.451 13.127C33.6994 12.6125 34.2418 12.3076 34.8152 12.3788L35.0192 12.4057C35.132 12.4204 35.2448 12.4392 35.363 12.4392C37.9544 12.4392 40.061 10.3316 40.061 7.74161C40.061 5.14764 37.953 3.03861 35.363 3.03861C32.7729 3.03861 30.6663 5.14898 30.6663 7.74161C30.6663 7.84908 30.6824 7.95386 30.6971 8.05864L30.7253 8.29775C30.7858 8.86464 30.4837 9.40734 29.9694 9.65317C29.4592 9.89631 28.8442 9.79288 28.4428 9.38988L21.8582 2.79816C21.6005 2.54292 21.399 2.54024 21.1372 2.80084L17.0622 6.87785C20.5572 7.74296 22.9109 10.9065 22.9109 14.6665C22.9109 19.0874 19.5569 22.7318 15.1368 22.7318C11.3799 22.7318 8.21925 20.0841 7.3559 16.5915Z" fill="#FFAE00"/>
</svg>
