<svg width="47" height="47" viewBox="0 0 47 47" fill="none" xmlns="http://www.w3.org/2000/svg">
<path d="M18.7222 4.38889C18.7222 3.06955 19.7917 2 21.1111 2H25.8889C27.2083 2 28.2778 3.06955 28.2778 4.38889V5.74766C28.2778 6.76963 28.9636 7.65749 29.9075 8.04934C30.8518 8.44135 31.9512 8.29195 32.674 7.56905L33.6351 6.60795C34.568 5.67502 36.0806 5.67502 37.0135 6.60795L40.3918 9.98634C41.3249 10.9193 41.3249 12.4318 40.3918 13.3648L39.431 14.3257C38.7079 15.0487 38.5586 16.1481 38.9506 17.0924C39.3424 18.0363 40.2303 18.7222 41.2525 18.7222H42.6111C43.9305 18.7222 45 19.7917 45 21.1111V25.8889C45 27.2083 43.9305 28.2778 42.6111 28.2778H41.2523C40.2303 28.2778 39.3426 28.9636 38.9506 29.9075C38.5586 30.8518 38.7079 31.9512 39.431 32.674L40.3918 33.6351C41.3249 34.568 41.3249 36.0806 40.3918 37.0135L37.0135 40.3918C36.0806 41.3249 34.568 41.3249 33.6351 40.3918L32.674 39.431C31.9512 38.7079 30.8518 38.5586 29.9075 38.9506C28.9636 39.3424 28.2778 40.2303 28.2778 41.2523V42.6111C28.2778 43.9305 27.2083 45 25.8889 45H21.1111C19.7917 45 18.7222 43.9305 18.7222 42.6111V41.2525C18.7222 40.2303 18.0363 39.3424 17.0924 38.9506C16.1481 38.5586 15.0487 38.7079 14.3257 39.431L13.3647 40.3918C12.4318 41.3249 10.9192 41.3249 9.98632 40.3918L6.6079 37.0135C5.675 36.0806 5.675 34.568 6.6079 33.6351L7.56905 32.674C8.29195 31.9512 8.44135 30.8518 8.04934 29.9075C7.65749 28.9636 6.76963 28.2778 5.74766 28.2778H4.38889C3.06955 28.2778 2 27.2083 2 25.8889V21.1111C2 19.7917 3.06955 18.7222 4.38889 18.7222H5.74762C6.76961 18.7222 7.65749 18.0363 8.04936 17.0924C8.4414 16.1482 8.292 15.0488 7.56905 14.3259L6.60795 13.3648C5.67502 12.4318 5.67502 10.9193 6.60795 9.98637L9.98634 6.60795C10.9193 5.67504 12.4318 5.67504 13.3648 6.60795L14.3259 7.56905C15.0488 8.292 16.1482 8.4414 17.0924 8.04936C18.0363 7.65749 18.7222 6.76961 18.7222 5.74759V4.38889Z" fill="#FFAE00" stroke="#0C0A09" stroke-width="3.75"/>
<path d="M28.2777 23.5004C28.2777 26.1392 26.1387 28.2782 23.4999 28.2782C20.8612 28.2782 18.7222 26.1392 18.7222 23.5004C18.7222 20.8617 20.8612 18.7227 23.4999 18.7227C26.1387 18.7227 28.2777 20.8617 28.2777 23.5004Z" fill="#0C0A09" stroke="#FFAE00" stroke-width="3.75"/>
</svg>
