<svg xmlns="http://www.w3.org/2000/svg" width="40" height="40" viewBox="0 0 64 64" fill="none" stroke="black"
     stroke-width="2" stroke-linecap="round" stroke-linejoin="round"
     class="icon icon-tabler icons-tabler-outline icon-tabler-navigation">
    <defs>
        <filter id='shadow' color-interpolation-filters="sRGB">
            <feDropShadow dx="0" dy="0" stdDeviation="1.5" flood-opacity="0.7" />
        </filter>
    </defs>
    <g filter="url(#shadow)" transform="translate(8, 8)">
        <ellipse rx="24" ry="24" transform="translate(24 24)" fill="#ffab01" stroke="none" />
        <g transform="translate(12 12)" filter="url(#eKPRpI9QNs03-filter)">
            <path stroke="none" d="M0 0h24v24H0z" />
            <path d="M7 17m-2 0a2 2 0 1 0 4 0a2 2 0 1 0 -4 0" />
            <path d="M17 17m-2 0a2 2 0 1 0 4 0a2 2 0 1 0 -4 0" />
            <path d="M5 17h-2v-6l2 -5h9l4 5h1a2 2 0 0 1 2 2v4h-2m-4 0h-6m-6 -6h15m-6 0v-5" />
        </g>
    </g>
</svg>

