<svg xmlns="http://www.w3.org/2000/svg" width="40" height="40" viewBox="0 0 64 64" fill="none" stroke="black"
     stroke-width="2" stroke-linecap="round" stroke-linejoin="round"
     class="icon icon-tabler icons-tabler-outline icon-tabler-navigation">
    <defs>
        <filter id='shadow' color-interpolation-filters="sRGB">
            <feDropShadow dx="0" dy="0" stdDeviation="1.5" flood-opacity="0.7"/>
        </filter>
    </defs>
    <g filter="url(#shadow)" transform="translate(8, 8)">
        <ellipse rx="24" ry="24" transform="translate(24 24)" fill="#ffab01" stroke="none" />
        <g transform="translate(12 12)" filter="url(#eKPRpI9QNs03-filter)">
            <path stroke="none" d="M0 0h24v24H0z" fill="none"/>
            <path d="M4 5h2"/>
            <path d="M5 4v2"/>
            <path d="M11.5 4l-.5 2"/>
            <path d="M18 5h2"/>
            <path d="M19 4v2"/>
            <path d="M15 9l-1 1"/>
            <path d="M18 13l2 -.5"/>
            <path d="M18 19h2"/>
            <path d="M19 18v2"/>
            <path d="M14 16.518l-6.518 -6.518l-4.39 9.58a1 1 0 0 0 1.329 1.329l9.579 -4.39z"/>
        </g>
    </g>
</svg>
