<svg xmlns="http://www.w3.org/2000/svg" width="40" height="40" viewBox="0 0 64 64" fill="none" stroke="black"
     stroke-width="2" stroke-linecap="round" stroke-linejoin="round"
     class="icon icon-tabler icons-tabler-outline icon-tabler-navigation">
    <defs>
        <filter id='shadow' color-interpolation-filters="sRGB">
            <feDropShadow dx="0" dy="0" stdDeviation="1.5" flood-opacity="0.7"/>
        </filter>
    </defs>
    <g filter="url(#shadow)" transform="translate(8, 8)">
        <ellipse rx="24" ry="24" transform="translate(24 24)" fill="#ffab01" stroke="none"/>
        <g transform="translate(12 12)" filter="url(#eKPRpI9QNs03-filter)">
            <path stroke="none" d="M0 0h24v24H0z" fill="none"/>
            <path d="M15 9a3 3 0 0 1 2.599 1.5h0c.933 1.333 2.133 1.556 3.126 1.556l.291 0l.77 -.044l.213 0c-.963 1.926 -3.163 2.925 -6.6 3l-.4 0l-.165 0a3 3 0 0 1 .165 -6z"/>
            <path d="M9 9a3 3 0 0 0 -2.599 1.5h0c-.933 1.333 -2.133 1.556 -3.126 1.556l-.291 0l-.77 -.044l-.213 0c.963 1.926 3.163 2.925 6.6 3l.4 0l.165 0a3 3 0 0 0 -.165 -6z"/>
        </g>
    </g>
</svg>


