<svg width="28" height="28" viewBox="0 0 28 28" fill="none" xmlns="http://www.w3.org/2000/svg">
<path d="M26.2512 14.272C26.2512 13.2648 26.1678 12.5298 25.9873 11.7676H14.2512V16.3136H21.14C21.0012 17.4434 20.2512 19.1448 18.5845 20.2881L18.5612 20.4403L22.2719 23.2574L22.529 23.2826C24.89 21.1456 26.2512 18.0014 26.2512 14.272Z" fill="#4285F4"/>
<path d="M14.2505 26.2502C17.6255 26.2502 20.4587 25.1612 22.5282 23.2829L18.5838 20.2884C17.5283 21.0098 16.1116 21.5134 14.2505 21.5134C10.945 21.5134 8.13947 19.3765 7.13938 16.4229L6.99279 16.4351L3.13432 19.3615L3.08386 19.4989C5.13939 23.5006 9.3616 26.2502 14.2505 26.2502Z" fill="#34A853"/>
<path d="M7.14005 16.4227C6.87617 15.6605 6.72345 14.8438 6.72345 13.9999C6.72345 13.156 6.87617 12.3394 7.12617 11.5771L7.11918 11.4148L3.21235 8.44141L3.08452 8.50099C2.23734 10.1616 1.75122 12.0263 1.75122 13.9999C1.75122 15.9735 2.23734 17.8382 3.08452 19.4988L7.14005 16.4227Z" fill="#FBBC05"/>
<path d="M14.2506 6.48663C16.5978 6.48663 18.1811 7.48024 19.0839 8.31057L22.6117 4.935C20.4451 2.96139 17.6255 1.75 14.2506 1.75C9.36164 1.75 5.1394 4.49942 3.08386 8.50106L7.12552 11.5772C8.1395 8.6236 10.945 6.48663 14.2506 6.48663Z" fill="#EB4335"/>
</svg>
