<svg width="64" height="64" viewBox="0 0 82 82" fill="none" xmlns="http://www.w3.org/2000/svg">
<path d="M30.0113 75.1662C24.2536 72.5965 19.4977 68.5922 16.3718 63.2314L30.0113 75.1662Z" fill="#FFAE00"/>
<path d="M30.0113 75.1662C24.2536 72.5965 19.4977 68.5922 16.3718 63.2314" stroke="#FFAE00" stroke-width="3.75" stroke-linecap="round"/>
<path d="M50.6527 7.46834C56.3821 5.83814 62.2971 7.3901 66.4258 11.6069L50.6527 7.46834Z" fill="#FFAE00"/>
<path d="M50.6527 7.46834C56.3821 5.83814 62.2971 7.3901 66.4258 11.6069" stroke="#FFAE00" stroke-width="3.75" stroke-linecap="round"/>
<path d="M35.5897 32.544C36.3027 33.7665 37.8717 34.1797 39.0942 33.4667C40.3166 32.7538 40.7297 31.1848 40.017 29.9623L35.5897 32.544ZM25.755 41.453C26.4679 42.6755 28.0369 43.0886 29.2595 42.3756C30.482 41.6628 30.8952 40.0939 30.1823 38.8711L25.755 41.453ZM54.8289 34.6758L56.1006 36.9007C56.6941 36.5614 57.1273 35.9994 57.3043 35.3393C57.4813 34.6788 57.387 33.9754 57.0426 33.385L54.8289 34.6758ZM58.1356 19.6588C58.8483 20.8813 60.4172 21.2945 61.6401 20.5816C62.8625 19.8686 63.2756 18.2996 62.5626 17.0771L58.1356 19.6588ZM47.0953 52.2747C47.8084 53.4971 49.3773 53.9102 50.5998 53.1975C51.8226 52.4844 52.2357 50.9155 51.5226 49.693L47.0953 52.2747ZM69.5189 29.0059C68.8058 27.7833 67.2369 27.3702 66.0144 28.0831C64.7919 28.796 64.3789 30.365 65.0916 31.5876L69.5189 29.0059ZM30.7053 68.949C31.9472 69.6276 33.5041 69.1708 34.1827 67.9288C34.8612 66.6868 34.4048 65.1302 33.1627 64.4517L30.7053 68.949ZM47.4534 66.7794C46.0539 66.9892 45.0894 68.294 45.2992 69.6935C45.5089 71.0933 46.8134 72.0578 48.2132 71.8481L47.4534 66.7794ZM14.9744 30.8101C17.1394 29.5728 19.2708 30.3334 20.0021 31.5876L24.4294 29.0059C21.9835 24.8116 16.4922 24.0398 12.4314 26.3606L14.9744 30.8101ZM12.4314 26.3606C8.36264 28.6859 6.27065 33.8141 8.72925 38.0302L13.1565 35.4486C12.4378 34.2162 12.8172 32.043 14.9744 30.8101L12.4314 26.3606ZM24.0839 12.8133L26.9604 17.746L31.3876 15.1643L28.5112 10.2316L24.0839 12.8133ZM26.9604 17.746L35.5897 32.544L40.017 29.9623L31.3876 15.1643L26.9604 17.746ZM30.1823 38.8711L24.4294 29.0059L20.0021 31.5876L25.755 41.453L30.1823 38.8711ZM24.4294 29.0059L17.2383 16.6742L12.811 19.2559L20.0021 31.5876L24.4294 29.0059ZM19.0562 12.0359C21.2212 10.7986 23.3525 11.5592 24.0839 12.8133L28.5112 10.2316C26.0653 6.03732 20.5739 5.26553 16.5132 7.5863L19.0562 12.0359ZM16.5132 7.5863C12.4444 9.91165 10.3524 15.0398 12.811 19.2559L17.2383 16.6742C16.5196 15.4419 16.899 13.2687 19.0562 12.0359L16.5132 7.5863ZM38.2332 11.3034L46.8626 26.1014L51.2899 23.5197L42.6605 8.7217L38.2332 11.3034ZM46.8626 26.1014L52.6156 35.9666L57.0426 33.385L51.2899 23.5197L46.8626 26.1014ZM33.2055 10.526C35.3707 9.28862 37.502 10.0492 38.2332 11.3034L42.6605 8.7217C40.2145 4.5274 34.7232 3.75561 30.6625 6.07638L33.2055 10.526ZM30.6625 6.07638C26.5938 8.40172 24.5018 13.5299 26.9604 17.746L31.3876 15.1643C30.669 13.9319 31.0483 11.7588 33.2055 10.526L30.6625 6.07638ZM53.1076 18.8814C55.2728 17.644 57.4041 18.4046 58.1356 19.6588L62.5626 17.0771C60.1169 12.8828 54.6256 12.111 50.5646 14.4318L53.1076 18.8814ZM50.5646 14.4318C46.496 16.7571 44.404 21.8853 46.8626 26.1014L51.2899 23.5197C50.5711 22.2873 50.9507 20.1142 53.1076 18.8814L50.5646 14.4318ZM8.72925 38.0302L21.6732 60.2273L26.1005 57.6453L13.1565 35.4486L8.72925 38.0302ZM66.7647 34.4567C72.2491 43.8618 68.1628 56.9869 56.6668 63.5568L59.2098 68.0067C72.6175 60.3441 78.4166 44.2639 71.192 31.8751L66.7647 34.4567ZM51.5226 49.693C49.2153 45.7362 50.8304 39.9125 56.1006 36.9007L53.5576 32.4511C46.3761 36.5556 43.0483 45.3344 47.0953 52.2747L51.5226 49.693ZM65.0916 31.5876L66.7647 34.4567L71.192 31.8751L69.5189 29.0059L65.0916 31.5876ZM33.1627 64.4517C30.2495 62.8598 27.8057 60.5696 26.1005 57.6453L21.6732 60.2273C23.8771 64.0065 27.0247 66.938 30.7053 68.949L33.1627 64.4517ZM56.6668 63.5568C53.6956 65.2549 50.5608 66.3137 47.4534 66.7794L48.2132 71.8481C51.9463 71.2884 55.6862 70.0205 59.2098 68.0067L56.6668 63.5568Z" fill="#F9FAFB"/>
</svg>
